<svg width="21" height="22" viewBox="0 0 21 22" fill="none" xmlns="http://www.w3.org/2000/svg">
<path d="M17 9.5V7.5C17 6.96957 16.7893 6.46086 16.4142 6.08579C16.0391 5.71071 15.5304 5.5 15 5.5H7C6.46957 5.5 5.96086 5.71071 5.58579 6.08579C5.21071 6.46086 5 6.96957 5 7.5V15.5C5 16.0304 5.21071 16.5391 5.58579 16.9142C5.96086 17.2893 6.46957 17.5 7 17.5H9" stroke="#A2A2A3" stroke-width="2" stroke-linecap="round" stroke-linejoin="round"/>
<path d="M1 1.5V1.51M5 1.5V1.51M9 1.5V1.51M13 1.5V1.51M1 5.5V5.51M1 9.5V9.51M1 13.5V13.51M11 11.5L20 14.5L16 16.5L14 20.5L11 11.5Z" stroke="#A2A2A3" stroke-width="2" stroke-linecap="round" stroke-linejoin="round"/>
</svg>
